<?xml version="1.0" encoding="UTF-8" standalone="no"?><!DOCTYPE svg PUBLIC "-//W3C//DTD SVG 1.1//EN" "http://www.w3.org/Graphics/SVG/1.1/DTD/svg11.dtd"><svg width="100%" height="100%" viewBox="0 0 4500 4500" version="1.1" xmlns="http://www.w3.org/2000/svg" xmlns:xlink="http://www.w3.org/1999/xlink" xml:space="preserve" xmlns:serif="http://www.serif.com/" style="fill-rule:evenodd;clip-rule:evenodd;stroke-linejoin:round;stroke-miterlimit:2;"><path d="M2257.125,4097.221c-182.342,0 -330.158,-147.817 -330.158,-330.158l0,-1100.238c0,0 -663.954,-1101.263 -1065.733,-1767.671c-60.958,-101.108 -62.75,-227.204 -4.692,-330.004c58.058,-102.8 166.975,-166.371 285.038,-166.371l2.675,0c117.904,0 226.696,63.404 284.817,165.983c182.3,321.754 566.004,998.992 566.004,998.992c70.15,121.987 132.433,241.054 186.854,357.2c0,0.004 0.004,0.004 0.004,0.008c14.429,30.792 45.433,50.392 79.438,50.221c34.004,-0.167 64.812,-20.075 78.933,-51.008c0.604,-1.325 1.213,-2.654 1.825,-3.987c53.75,-117.208 113.825,-234.688 180.229,-352.438c0,0 373.471,-673.562 552.454,-996.358c57.696,-104.058 167.308,-168.613 286.292,-168.613l0.438,0c117.792,0 226.5,63.283 284.662,165.713c58.162,102.429 56.812,228.208 -3.538,329.363c-397.504,666.279 -1055.379,1768.971 -1055.379,1768.971l0,1100.238c0,182.342 -147.817,330.158 -330.158,330.158l-0.004,0Z" style="fill:#05df72;fill-rule:nonzero;"/><path d="M3165.713,2359.017c91.958,0 166.508,74.55 166.508,166.508l0,0.008c0,91.958 -74.55,166.508 -166.508,166.508l-1828.3,0c-91.958,0 -166.508,-74.55 -166.508,-166.508l0,-0.008c0,-91.958 74.55,-166.508 166.508,-166.508l1828.3,0Zm-1.562,567.117c91.958,0 166.508,74.55 166.508,166.508l0,0.008c0,91.958 -74.55,166.508 -166.508,166.508l-1828.3,0c-91.958,0 -166.508,-74.55 -166.508,-166.508l0,-0.008c0,-91.958 74.55,-166.508 166.508,-166.508l1828.3,0Z" style="fill:#0e9350;"/></svg>